<?xml version="1.0" standalone="no"?>
<!DOCTYPE svg PUBLIC "-//W3C//DTD SVG 20010904//EN"
 "http://www.w3.org/TR/2001/REC-SVG-20010904/DTD/svg10.dtd">
<svg version="1.0" xmlns="http://www.w3.org/2000/svg"
 width="435.000000pt" height="96.000000pt" viewBox="0 0 435.000000 96.000000"
 preserveAspectRatio="xMidYMid meet">

<g transform="translate(0.000000,96.000000) scale(0.100000,-0.100000)"
fill="#000000" stroke="none">
<path d="M0 725 c0 -226 1 -235 19 -235 12 0 21 8 24 23 l4 22 8 -22 c5 -16
15 -23 33 -23 24 0 25 -1 7 -20 -10 -11 -15 -28 -12 -40 6 -22 -3 -26 -20 -9
-8 8 -17 8 -32 -1 -20 -10 -21 -9 -16 13 4 14 2 28 -4 31 -8 5 -11 -62 -11
-228 l0 -236 180 0 180 0 0 105 0 105 -95 0 -95 0 0 260 0 260 95 0 95 0 0
115 0 115 -180 0 -180 0 0 -235z m123 -35 c19 0 19 -1 4 -18 -11 -12 -14 -26
-10 -42 6 -23 5 -24 -11 -11 -14 12 -21 12 -38 2 -18 -11 -19 -10 -16 13 2 16
-4 30 -17 40 -19 15 -19 15 7 16 19 0 29 7 34 23 l7 22 10 -22 c6 -13 19 -23
30 -23z m-23 -406 c0 -9 10 -14 27 -14 25 0 26 -1 8 -20 -10 -11 -15 -28 -12
-40 6 -23 -3 -26 -21 -8 -10 10 -17 10 -33 0 -19 -12 -20 -11 -14 8 4 14 1 28
-11 41 -16 18 -16 19 5 19 14 0 25 7 28 20 6 22 23 18 23 -6z"/>
<path d="M2370 846 c0 -9 31 -76 35 -76 9 0 36 62 32 73 -3 7 -10 -1 -17 -18
l-12 -30 -14 28 c-13 24 -24 35 -24 23z"/>
<path d="M2450 810 c0 -22 5 -40 10 -40 6 0 10 18 10 40 0 22 -4 40 -10 40 -5
0 -10 -18 -10 -40z"/>
<path d="M2492 838 c-7 -7 -12 -22 -12 -35 0 -28 39 -50 67 -37 15 7 12 9 -14
12 -17 2 -34 10 -37 17 -8 21 20 44 45 38 15 -4 20 -3 15 5 -9 16 -49 15 -64
0z"/>
<path d="M2570 805 c0 -41 2 -45 25 -45 31 0 33 17 3 23 l-23 4 24 10 25 10
-25 7 -24 7 23 9 c29 12 28 20 -3 20 -23 0 -25 -4 -25 -45z"/>
<path d="M2630 810 c0 -22 5 -40 10 -40 6 0 10 7 10 15 0 8 6 15 14 15 8 0 17
6 19 13 3 6 6 0 6 -15 1 -29 21 -40 21 -11 0 15 1 15 18 0 23 -21 39 -22 23
-3 -7 8 -11 20 -10 28 5 38 -22 53 -49 26 -9 -9 -12 -9 -12 0 0 7 -11 12 -25
12 -22 0 -25 -4 -25 -40z m95 21 c3 -5 1 -12 -5 -16 -5 -3 -10 1 -10 9 0 18 6
21 15 7z m-55 -5 c0 -3 -4 -8 -10 -11 -5 -3 -10 -1 -10 4 0 6 5 11 10 11 6 0
10 -2 10 -4z"/>
<path d="M2770 805 c0 -41 2 -45 25 -45 14 0 25 5 25 10 0 6 -9 10 -20 10 -28
0 -25 20 3 21 21 0 21 1 -3 11 l-25 10 23 9 c29 11 28 19 -3 19 -23 0 -25 -4
-25 -45z"/>
<path d="M2830 833 c0 -9 7 -25 17 -35 15 -17 15 -18 -2 -18 -15 0 -16 -3 -7
-12 10 -9 16 -9 28 4 15 15 15 18 -4 34 -20 17 -21 41 -1 29 5 -4 9 -1 9 4 0
6 -9 11 -20 11 -12 0 -20 -7 -20 -17z"/>
<path d="M2893 805 c0 -27 2 -38 4 -22 2 15 2 37 0 50 -2 12 -4 0 -4 -28z"/>
<path d="M2920 805 c0 -36 3 -45 18 -45 24 0 62 28 62 45 0 21 -29 45 -56 45
-22 0 -24 -4 -24 -45z m55 0 c0 -13 -8 -21 -22 -23 -19 -3 -23 1 -23 23 0 22
4 26 23 23 14 -2 22 -10 22 -23z"/>
<path d="M3010 805 c0 -41 2 -45 25 -45 31 0 33 17 3 23 l-23 4 24 10 25 10
-25 7 -24 7 23 9 c29 12 28 20 -3 20 -23 0 -25 -4 -25 -45z"/>
<path d="M3071 808 c0 -38 1 -40 10 -19 l10 24 29 -28 30 -29 -1 50 c-1 29 -4
38 -6 22 -5 -35 -18 -35 -39 -3 -24 36 -34 31 -33 -17z"/>
<path d="M3176 834 c-21 -20 -20 -37 2 -57 21 -19 48 -22 57 -7 4 6 -5 10 -20
10 -32 0 -45 28 -21 46 10 7 24 10 32 7 8 -3 14 0 14 6 0 17 -46 13 -64 -5z"/>
<path d="M3257 843 c-11 -10 -8 -73 3 -73 6 0 10 18 10 40 0 41 -2 45 -13 33z"/>
<path d="M3295 810 c-10 -22 -15 -43 -12 -47 4 -3 9 2 13 11 8 20 28 21 44 1
22 -27 22 -9 0 34 -11 23 -22 41 -24 41 -1 0 -11 -18 -21 -40z"/>
<path d="M856 822 c-2 -4 -3 -20 -2 -35 4 -31 3 -32 -43 -42 -31 -7 -33 -5
-28 14 7 28 -1 27 -12 -3 -6 -15 -20 -25 -42 -30 -39 -8 -46 -2 -28 21 13 17
12 17 -4 4 -26 -20 -15 -54 35 -110 l40 -46 -41 -3 -41 -3 0 -59 0 -59 -52 1
c-57 1 -108 -15 -108 -32 0 -18 20 -50 30 -50 6 0 10 9 10 20 0 11 6 20 13 21
6 0 21 2 32 5 11 2 32 1 46 -2 27 -5 27 -5 31 -116 3 -108 4 -111 33 -134 42
-34 116 -19 133 27 7 18 9 18 30 -11 18 -24 19 -30 7 -30 -8 0 -15 5 -15 10 0
6 -5 10 -11 10 -5 0 -7 -4 -4 -10 3 -6 -4 -10 -17 -11 l-23 0 23 -9 c13 -6 32
-6 46 0 14 5 40 6 60 3 30 -5 40 -1 66 25 28 29 30 35 30 111 l0 81 -58 0
c-55 0 -58 1 -69 31 -7 17 -21 33 -32 36 -19 5 -21 13 -21 74 l0 69 45 0 c39
0 49 5 77 36 18 20 39 43 46 50 14 15 16 70 3 78 -5 4 -7 -4 -3 -16 4 -17 2
-20 -12 -15 -10 4 -24 7 -32 7 -8 0 -19 11 -24 25 -12 30 -20 33 -13 4 6 -20
3 -21 -36 -14 -27 4 -41 3 -41 -4 0 -6 -4 -11 -10 -11 -14 0 -12 19 4 35 7 8
11 25 9 39 -5 26 -17 34 -27 18z m-61 -335 c-10 -8 -15 -19 -11 -25 4 -7 2
-12 -3 -12 -6 0 -11 9 -11 19 0 11 -6 22 -12 24 -7 3 2 6 21 6 32 1 33 0 16
-12z m12 -59 c-3 -8 -6 -5 -6 6 -1 11 2 17 5 13 3 -3 4 -12 1 -19z"/>
<path d="M2375 710 c-3 -5 1 -10 9 -10 10 0 16 -13 19 -37 l4 -38 1 38 c1 25
7 37 17 37 8 0 15 5 15 10 0 6 -13 10 -29 10 -17 0 -33 -4 -36 -10z"/>
<path d="M2457 713 c-4 -3 -7 -24 -7 -45 0 -35 2 -38 28 -37 16 1 20 3 10 6
-10 2 -18 11 -18 18 0 7 8 16 18 18 16 4 16 5 0 6 -22 1 -24 21 -3 21 8 0 15
5 15 10 0 11 -33 14 -43 3z"/>
<path d="M2517 713 c-11 -10 -8 -83 3 -83 6 0 10 7 10 15 0 8 4 15 9 15 5 0
11 -7 15 -15 11 -31 24 -15 14 18 -6 17 -12 38 -14 45 -4 13 -26 16 -37 5z
m33 -23 c0 -5 -4 -10 -10 -10 -5 0 -10 5 -10 10 0 6 5 10 10 10 6 0 10 -4 10
-10z"/>
<path d="M2600 700 c-24 -24 -25 -34 -4 -54 17 -18 64 -22 64 -5 0 6 -8 8 -19
4 -22 -7 -46 18 -37 40 3 8 17 15 31 15 15 0 24 4 20 10 -10 16 -33 12 -55
-10z"/>
<path d="M2674 706 c-3 -8 -4 -27 -2 -43 2 -23 8 -28 33 -30 20 -1 23 0 8 4
-27 5 -30 30 -5 36 16 4 16 5 0 6 -22 1 -24 21 -3 21 8 0 15 5 15 10 0 15 -40
12 -46 -4z"/>
<path d="M2741 673 c1 -27 3 -40 6 -30 5 21 22 22 29 2 7 -17 44 -21 44 -5 0
14 33 13 48 -2 19 -19 14 11 -8 52 l-19 35 -17 -42 c-14 -35 -20 -41 -31 -31
-8 6 -11 18 -8 26 6 17 -12 42 -31 42 -10 0 -14 -13 -13 -47z m29 17 c0 -5 -4
-10 -10 -10 -5 0 -10 5 -10 10 0 6 5 10 10 10 6 0 10 -4 10 -10z"/>
<path d="M2930 675 c0 -41 2 -45 24 -45 27 0 56 24 56 45 0 17 -38 45 -62 45
-15 0 -18 -9 -18 -45z m57 9 c7 -19 -20 -49 -36 -40 -6 4 -11 18 -11 32 0 17
5 24 20 24 11 0 23 -7 27 -16z"/>
<path d="M3027 713 c-4 -3 -7 -24 -7 -45 0 -35 2 -38 28 -37 26 0 26 1 5 9
-13 5 -23 12 -23 15 0 3 10 10 23 15 l22 9 -22 0 c-29 1 -31 21 -2 21 11 0 17
5 14 10 -7 11 -28 13 -38 3z"/>
<path d="M3185 700 c-27 -30 -7 -70 35 -70 23 0 30 4 30 20 0 12 -7 20 -17 20
-14 0 -15 -2 -4 -9 17 -11 -2 -23 -24 -15 -27 11 -14 48 18 52 15 2 25 8 22
13 -10 16 -41 10 -60 -11z"/>
<path d="M3275 700 c-40 -44 27 -97 69 -54 21 20 20 30 -4 54 -25 25 -42 25
-65 0z m62 -16 c8 -21 -19 -46 -40 -38 -17 6 -23 35 -10 47 12 13 44 7 50 -9z"/>
<path d="M3370 674 c0 -44 1 -45 28 -42 24 3 27 6 24 38 -3 34 -15 50 -39 50
-9 0 -13 -16 -13 -46z m30 16 c0 -5 -4 -10 -10 -10 -5 0 -10 5 -10 10 0 6 5
10 10 10 6 0 10 -4 10 -10z m4 -41 c-3 -5 -10 -7 -15 -3 -5 3 -7 10 -3 15 3 5
10 7 15 3 5 -3 7 -10 3 -15z"/>
<path d="M3443 675 c0 -27 2 -38 4 -22 2 15 2 37 0 50 -2 12 -4 0 -4 -28z"/>
<path d="M3470 675 c0 -43 1 -45 28 -44 26 0 26 1 5 9 -13 5 -23 12 -23 15 0
3 10 10 23 15 l22 9 -22 0 c-29 1 -31 21 -2 21 11 0 17 5 14 10 -3 6 -15 10
-26 10 -16 0 -19 -7 -19 -45z"/>
<path d="M3530 673 c1 -42 2 -46 14 -31 12 16 14 16 29 0 10 -9 17 -11 17 -5
0 7 -4 14 -9 17 -5 3 -7 15 -4 27 4 12 0 25 -8 30 -30 19 -39 10 -39 -38z"/>
<path d="M3718 709 c-36 -21 -16 -79 27 -79 42 0 59 44 29 74 -18 18 -32 20
-56 5z m50 -35 c4 -27 -26 -40 -46 -20 -21 20 -8 48 20 44 14 -2 24 -11 26
-24z"/>
<path d="M3080 670 c0 -37 2 -40 28 -39 16 1 20 3 10 6 -13 3 -18 15 -18 39 0
19 -4 34 -10 34 -5 0 -10 -18 -10 -40z"/>
<path d="M3600 676 c0 -19 5 -38 10 -41 6 -4 10 6 10 21 l0 28 29 -28 28 -27
7 26 c4 14 2 33 -3 43 -9 14 -10 12 -11 -13 l-1 -30 -24 28 c-32 36 -45 34
-45 -7z"/>
<path d="M578 633 c-13 -3 -17 -12 -14 -36 3 -18 5 -38 5 -44 1 -8 14 -13 31
-13 17 0 30 5 31 13 0 6 2 27 5 45 2 17 0 32 -5 32 -5 0 -15 2 -23 4 -7 2 -21
2 -30 -1z"/>
<path d="M1118 633 c-16 -4 -18 -22 -9 -85 2 -14 61 -9 62 5 0 6 2 27 5 45 2
17 0 32 -5 32 -5 0 -15 2 -23 4 -7 2 -21 2 -30 -1z"/>
<path d="M1378 589 c-25 -14 -23 -65 2 -79 12 -6 30 -8 40 -5 23 7 27 45 5 45
-9 0 -12 -6 -9 -15 8 -19 -19 -20 -35 -1 -19 22 -2 46 33 46 24 0 27 3 16 10
-19 12 -30 12 -52 -1z"/>
<path d="M1472 584 c-28 -19 -28 -49 0 -68 28 -20 43 -20 62 0 22 21 20 61 -3
74 -26 13 -33 13 -59 -6z m53 -34 c0 -18 -6 -26 -23 -28 -13 -2 -25 3 -28 12
-10 26 4 48 28 44 17 -2 23 -10 23 -28z"/>
<path d="M1567 593 c-4 -3 -7 -24 -7 -45 0 -43 16 -56 49 -39 17 9 19 18 14
44 -8 40 -36 61 -56 40z m33 -23 c0 -5 -4 -10 -10 -10 -5 0 -10 5 -10 10 0 6
5 10 10 10 6 0 10 -4 10 -10z m10 -40 c0 -5 -7 -10 -15 -10 -8 0 -15 5 -15 10
0 6 7 10 15 10 8 0 15 -4 15 -10z"/>
<path d="M1643 550 c0 -30 2 -43 4 -27 2 15 2 39 0 55 -2 15 -4 2 -4 -28z"/>
<path d="M1677 593 c-4 -3 -7 -24 -7 -45 0 -41 17 -56 48 -42 15 7 14 8 -5 11
-26 5 -32 23 -8 23 8 0 15 5 15 10 0 6 -7 10 -15 10 -8 0 -15 5 -15 10 0 6 7
10 15 10 8 0 15 5 15 10 0 11 -33 14 -43 3z"/>
<path d="M1741 548 c1 -29 4 -43 6 -30 2 12 8 22 12 22 5 0 16 -10 24 -22 13
-19 16 -20 16 -6 1 9 -3 19 -8 22 -5 3 -7 15 -4 27 6 21 -10 39 -34 39 -9 0
-13 -16 -12 -52z m29 22 c0 -5 -4 -10 -10 -10 -5 0 -10 5 -10 10 0 6 5 10 10
10 6 0 10 -4 10 -10z"/>
<path d="M1822 555 c1 -31 3 -39 5 -21 l5 28 34 -33 34 -33 -2 55 c-1 35 -3
43 -5 22 -2 -18 -6 -33 -9 -33 -2 0 -18 15 -34 33 l-29 32 1 -50z"/>
<path d="M1930 580 c-11 -11 -20 -24 -20 -30 0 -13 37 -50 51 -50 27 0 49 22
49 50 0 19 -7 33 -19 40 -28 14 -38 13 -61 -10z m60 -15 c10 -12 10 -18 0 -30
-26 -32 -68 -8 -54 30 4 8 14 15 24 15 10 0 23 -7 30 -15z"/>
<path d="M959 557 c-9 -7 -14 -18 -11 -25 3 -9 -2 -13 -14 -10 -11 2 -18 10
-16 16 1 7 -2 12 -8 12 -15 0 -12 -16 5 -34 20 -19 19 -30 -1 -22 -10 4 -14 2
-11 -6 2 -7 11 -11 18 -9 8 2 22 6 32 8 16 5 16 3 6 -20 -7 -15 -16 -24 -20
-21 -5 3 -9 0 -9 -5 0 -6 7 -11 15 -11 8 0 15 5 15 10 0 6 5 10 10 10 6 0 10
-9 10 -19 0 -11 5 -23 10 -26 6 -4 9 8 8 29 -2 20 -7 36 -12 36 -4 0 -5 17 -1
38 4 20 7 41 8 46 3 14 -17 16 -34 3z m13 -39 c-7 -7 -12 -8 -12 -2 0 14 12
26 19 19 2 -3 -1 -11 -7 -17z"/>
<path d="M1011 544 c0 -11 3 -14 6 -6 3 7 2 16 -1 19 -3 4 -6 -2 -5 -13z"/>
<path d="M1860 480 c0 -6 7 -10 15 -10 8 0 15 2 15 4 0 2 -7 6 -15 10 -8 3
-15 1 -15 -4z"/>
<path d="M1078 472 c-20 -2 -28 -9 -28 -23 0 -17 5 -18 39 -13 42 7 81 -8 81
-31 0 -8 4 -15 10 -15 10 0 30 32 30 50 0 19 -81 40 -132 32z"/>
<path d="M1360 415 c0 -43 1 -45 28 -45 35 0 52 16 52 51 0 28 -15 39 -56 39
-22 0 -24 -4 -24 -45z m64 13 c12 -20 2 -35 -29 -40 -12 -2 -21 3 -23 15 -9
45 28 63 52 25z"/>
<path d="M1460 415 c0 -43 1 -45 28 -44 26 0 26 1 5 9 -13 5 -23 14 -23 20 0
5 10 10 23 11 l22 0 -22 9 c-13 5 -23 12 -23 15 0 3 10 10 23 15 21 8 21 9 -5
9 -27 1 -28 -1 -28 -44z"/>
<path d="M1560 415 c0 -42 2 -45 28 -45 23 1 24 2 10 11 -10 5 -18 14 -18 19
0 5 8 11 18 13 16 4 16 5 0 6 -10 0 -18 7 -18 15 0 8 8 17 18 19 10 3 6 5 -10
6 -27 1 -28 -1 -28 -44z"/>
<path d="M1625 449 c-4 -6 3 -21 16 -35 l22 -24 -23 0 c-18 0 -21 -3 -13 -11
7 -7 19 -9 27 -6 20 8 21 43 1 51 -8 3 -15 10 -15 17 0 6 7 9 15 5 8 -3 15 -1
15 4 0 13 -37 13 -45 -1z"/>
<path d="M1680 421 c0 -22 5 -43 10 -46 6 -3 10 3 10 13 0 11 9 22 20 25 12 3
20 14 20 26 0 17 -6 21 -30 21 -28 0 -30 -2 -30 -39z m41 16 c-1 -12 -15 -9
-19 4 -3 6 1 10 8 8 6 -3 11 -8 11 -12z"/>
<path d="M1755 424 c-18 -45 -19 -65 -1 -41 17 22 42 22 50 1 4 -9 9 -14 13
-11 8 8 -27 87 -38 87 -5 0 -16 -16 -24 -36z m30 -4 c3 -5 1 -10 -4 -10 -6 0
-11 5 -11 10 0 6 2 10 4 10 3 0 8 -4 11 -10z"/>
<path d="M1830 414 c0 -27 4 -43 10 -39 6 3 10 18 10 33 l0 27 26 -32 c14 -18
30 -33 35 -33 5 0 9 20 9 45 0 25 -4 45 -10 45 -5 0 -10 -12 -10 -27 l0 -27
-28 27 c-15 15 -31 27 -35 27 -4 0 -7 -21 -7 -46z"/>
<path d="M1945 424 c-18 -45 -19 -65 -1 -41 17 22 42 22 50 1 4 -9 9 -15 12
-12 7 8 -26 88 -37 88 -5 0 -16 -16 -24 -36z m30 -4 c3 -5 1 -10 -4 -10 -6 0
-11 5 -11 10 0 6 2 10 4 10 3 0 8 -4 11 -10z"/>
<path d="M2620 442 c-15 -5 -12 -32 5 -38 20 -8 19 -24 -2 -24 -12 0 -14 -3
-7 -10 14 -14 44 -2 44 16 0 8 -7 17 -15 20 -25 10 -17 24 14 24 27 0 30 -4
34 -37 l4 -38 1 37 c2 26 7 38 20 41 9 2 -7 5 -36 8 -28 2 -57 3 -62 1z"/>
<path d="M2913 439 c-33 -12 -31 -56 2 -71 22 -10 29 -9 47 9 34 35 -2 80 -49
62z m42 -34 c0 -23 -34 -33 -45 -14 -13 20 1 40 24 37 13 -2 21 -10 21 -23z"/>
<path d="M2381 398 c1 -33 3 -37 8 -18 4 16 13 25 26 25 13 0 22 -9 26 -25 5
-19 7 -15 8 18 1 42 -6 51 -26 31 -8 -8 -13 -8 -17 0 -15 23 -26 9 -25 -31z"/>
<path d="M2473 400 c0 -25 2 -35 4 -22 2 12 2 32 0 45 -2 12 -4 2 -4 -23z"/>
<path d="M2501 398 c2 -32 3 -36 6 -14 l5 28 29 -28 29 -28 -1 45 c-1 39 -2
41 -8 14 l-7 -30 -18 28 c-26 38 -36 34 -35 -15z"/>
<path d="M2593 400 c0 -25 2 -35 4 -22 2 12 2 32 0 45 -2 12 -4 2 -4 -23z"/>
<path d="M2740 400 c0 -33 3 -40 20 -40 11 0 20 5 20 10 0 6 -7 10 -15 10 -21
0 -19 18 3 23 16 4 16 5 0 6 -10 0 -18 5 -18 10 0 5 8 12 18 14 13 4 11 5 -5
6 -20 1 -23 -4 -23 -39z"/>
<path d="M2792 405 c0 -19 4 -38 9 -41 5 -3 9 5 9 18 l0 23 21 -25 21 -25 -6
25 c-3 14 -6 33 -6 43 0 11 -8 17 -24 17 -21 0 -24 -5 -24 -35z m38 21 c0 -3
-4 -8 -10 -11 -5 -3 -10 -1 -10 4 0 6 5 11 10 11 6 0 10 -2 10 -4z"/>
<path d="M2860 405 c0 -19 5 -35 10 -35 6 0 10 16 10 35 0 19 -4 35 -10 35 -5
0 -10 -16 -10 -35z"/>
<path d="M626 395 c-3 -9 -26 -24 -52 -35 -34 -15 -44 -24 -40 -36 3 -9 6 -20
6 -25 0 -5 5 -9 10 -9 6 0 10 6 10 14 0 8 17 21 38 29 46 18 65 39 56 61 -8
20 -20 21 -28 1z"/>
<path d="M1083 395 c-7 -21 18 -48 62 -65 19 -8 35 -20 35 -27 0 -21 17 -15
23 9 7 25 -11 41 -60 58 -18 7 -33 18 -33 26 0 19 -19 18 -27 -1z"/>
<path d="M3352 307 c-12 -13 -22 -30 -22 -38 0 -39 61 -54 80 -20 13 26 13 26
-13 55 l-24 26 -21 -23z m46 -33 c4 -25 -24 -40 -44 -23 -10 8 -11 16 -3 31
13 24 43 19 47 -8z"/>
<path d="M3858 311 c-25 -25 -23 -68 2 -76 11 -3 29 -3 40 0 28 9 28 61 0 70
-11 4 -18 11 -15 16 10 15 -9 9 -27 -10z m42 -27 c11 -12 10 -18 -3 -32 -16
-15 -18 -15 -34 0 -13 14 -14 20 -3 32 7 9 16 16 20 16 4 0 13 -7 20 -16z"/>
<path d="M2381 268 c1 -24 3 -35 6 -26 2 9 13 20 24 23 27 9 20 39 -9 43 -20
3 -22 -1 -21 -40z m29 22 c0 -5 -4 -10 -10 -10 -5 0 -10 5 -10 10 0 6 5 10 10
10 6 0 10 -4 10 -10z"/>
<path d="M2436 274 c-9 -20 -14 -39 -10 -43 4 -3 9 0 11 7 3 6 13 12 23 12 10
0 20 -6 23 -12 2 -7 7 -11 10 -8 6 6 -23 80 -32 80 -4 0 -15 -16 -25 -36z"/>
<path d="M2507 303 c-11 -10 -8 -61 3 -68 6 -3 10 1 10 9 0 21 10 20 25 -1 11
-15 16 -16 39 -4 21 11 28 12 41 1 11 -9 15 -9 15 -1 0 15 -29 71 -36 71 -3 0
-12 -16 -20 -35 -17 -41 -34 -38 -34 6 0 21 -5 29 -18 29 -10 0 -22 -3 -25 -7z
m28 -13 c3 -5 1 -10 -4 -10 -6 0 -11 5 -11 10 0 6 2 10 4 10 3 0 8 -4 11 -10z"/>
<path d="M2680 270 c0 -39 1 -40 35 -40 19 0 35 5 35 10 0 14 38 12 43 -2 2
-7 7 -10 11 -7 8 8 -24 79 -35 79 -4 0 -13 -16 -20 -35 -8 -22 -20 -35 -31
-35 -14 0 -18 8 -18 35 0 19 -4 35 -10 35 -5 0 -10 -18 -10 -40z"/>
<path d="M2842 298 c9 -7 19 -26 21 -43 4 -27 4 -27 6 7 1 26 6 38 19 41 9 3
-1 5 -22 6 -34 1 -37 -1 -24 -11z"/>
<path d="M2911 268 c1 -24 3 -35 6 -25 6 22 12 22 28 0 11 -15 16 -16 39 -4
21 11 28 12 41 1 11 -9 15 -9 15 -1 0 15 -29 71 -36 71 -3 0 -12 -16 -20 -35
-17 -41 -34 -38 -34 6 0 22 -5 29 -20 29 -17 0 -20 -6 -19 -42z m24 22 c3 -5
1 -10 -4 -10 -6 0 -11 5 -11 10 0 6 2 10 4 10 3 0 8 -4 11 -10z"/>
<path d="M3050 270 c0 -22 5 -40 10 -40 6 0 10 12 10 26 l0 27 21 -27 c29 -36
39 -33 39 15 0 24 -4 38 -10 34 -5 -3 -10 -16 -10 -27 0 -19 -2 -19 -21 6 -29
36 -39 33 -39 -14z"/>
<path d="M3140 291 c0 -10 7 -21 15 -25 8 -3 15 -10 15 -17 0 -6 -7 -9 -15 -5
-8 3 -15 1 -15 -4 0 -6 9 -10 20 -10 21 0 29 33 10 45 -5 3 -10 11 -10 16 0 6
5 7 10 4 6 -3 10 -1 10 4 0 6 -9 11 -20 11 -13 0 -20 -7 -20 -19z"/>
<path d="M3196 288 c-5 -16 -5 -36 0 -45 7 -16 8 -15 11 5 3 12 3 32 0 45 -3
21 -4 20 -11 -5z"/>
<path d="M3232 298 c-27 -27 -6 -68 35 -68 13 0 23 4 23 8 0 5 -10 8 -22 8
-18 -1 -23 5 -23 24 0 19 5 25 23 24 12 0 22 3 22 8 0 12 -44 10 -58 -4z"/>
<path d="M3307 303 c-8 -14 -5 -63 4 -69 5 -3 9 13 9 35 0 40 -4 49 -13 34z"/>
<path d="M3431 269 c2 -31 3 -36 6 -15 l5 28 29 -28 29 -28 -1 45 c-2 31 -3
36 -6 15 l-5 -28 -29 28 -29 28 1 -45z"/>
<path d="M3550 270 c0 -37 2 -40 28 -39 l27 0 -25 11 c-21 9 -22 12 -7 15 9 3
17 8 17 13 0 5 -8 10 -17 13 -15 3 -14 6 7 15 l25 11 -27 0 c-26 1 -28 -2 -28
-39z"/>
<path d="M3610 290 c-15 -28 4 -60 35 -60 13 0 27 5 31 12 5 8 2 9 -9 5 -24
-9 -47 2 -47 23 0 19 25 34 41 24 5 -3 9 0 9 5 0 20 -49 12 -60 -9z"/>
<path d="M3694 296 c-3 -8 -4 -25 -2 -38 2 -18 9 -23 32 -23 36 0 56 27 40 53
-14 22 -62 28 -70 8z m56 -12 c11 -12 10 -18 -3 -31 -13 -13 -19 -14 -31 -3
-19 15 -21 36 -3 43 20 9 24 8 37 -9z"/>
<path d="M3788 304 c-5 -4 -8 -22 -8 -41 0 -30 3 -33 28 -32 15 1 20 3 10 6
-11 3 -18 17 -20 40 -2 19 -6 31 -10 27z"/>
<path d="M3942 298 c-29 -29 -2 -72 40 -66 24 3 32 28 10 36 -8 2 -10 -2 -6
-13 5 -13 2 -16 -12 -13 -13 2 -19 12 -19 28 0 19 5 25 23 24 12 0 22 3 22 8
0 12 -44 10 -58 -4z"/>
<path d="M4023 270 c0 -25 2 -35 4 -22 2 12 2 32 0 45 -2 12 -4 2 -4 -23z"/>
<path d="M4057 303 c-4 -3 -7 -19 -7 -34 0 -22 6 -30 26 -35 15 -4 30 -2 37 6
9 10 7 11 -9 6 -29 -9 -52 18 -34 39 7 9 21 13 31 10 11 -4 19 -2 19 4 0 12
-52 15 -63 4z"/>
<path d="M4141 274 c-7 -19 -10 -38 -7 -41 3 -4 6 -1 6 5 0 16 33 15 48 0 16
-16 15 -8 -3 36 -8 20 -19 36 -23 36 -4 0 -14 -16 -21 -36z"/>
<path d="M560 213 c-28 -56 -23 -63 40 -63 63 0 68 7 40 63 -9 19 -21 27 -40
27 -19 0 -31 -8 -40 -27z m27 -29 c-3 -3 -12 -4 -19 -1 -8 3 -5 6 6 6 11 1 17
-2 13 -5z m50 0 c-3 -3 -12 -4 -19 -1 -8 3 -5 6 6 6 11 1 17 -2 13 -5z"/>
<path d="M1100 213 c-27 -55 -23 -63 35 -63 57 0 63 9 43 63 -15 38 -59 38
-78 0z m27 -29 c-3 -3 -12 -4 -19 -1 -8 3 -5 6 6 6 11 1 17 -2 13 -5z m50 0
c-3 -3 -12 -4 -19 -1 -8 3 -5 6 6 6 11 1 17 -2 13 -5z"/>
<path d="M3440 158 c-18 -50 -33 -55 -40 -13 -4 22 -11 30 -25 30 -16 0 -21
-8 -23 -37 -2 -22 1 -38 7 -38 6 0 11 7 11 17 0 14 2 14 20 -2 18 -16 23 -17
45 -5 20 11 27 11 40 0 19 -16 19 -12 0 34 -9 20 -13 41 -10 46 4 6 2 10 -2
10 -5 0 -15 -19 -23 -42z m-50 -2 c0 -3 -4 -8 -10 -11 -5 -3 -10 -1 -10 4 0 6
5 11 10 11 6 0 10 -2 10 -4z"/>
<path d="M2383 157 c8 -13 17 -32 20 -42 4 -17 5 -18 6 -2 0 10 8 29 17 42 10
15 12 25 5 25 -6 0 -11 -4 -11 -10 0 -5 -7 -10 -15 -10 -8 0 -15 5 -15 10 0 6
-5 10 -11 10 -7 0 -6 -8 4 -23z"/>
<path d="M2480 140 c0 -37 2 -40 28 -39 23 2 24 2 5 6 -27 5 -31 23 -6 23 15
0 14 2 -3 15 -17 13 -17 14 -1 15 24 0 22 20 -3 20 -17 0 -20 -7 -20 -40z"/>
<path d="M2542 143 c-2 -39 0 -43 21 -42 16 1 17 3 5 6 -11 3 -18 17 -21 41
l-4 37 -1 -42z"/>
<path d="M2627 173 c-11 -10 -8 -73 3 -73 6 0 10 7 10 17 0 14 2 14 21 -3 20
-18 20 -18 14 11 -4 17 -8 36 -11 43 -4 13 -26 16 -37 5z m33 -17 c0 -3 -4 -8
-10 -11 -5 -3 -10 -1 -10 4 0 6 5 11 10 11 6 0 10 -2 10 -4z"/>
<path d="M2697 173 c-4 -3 -7 -21 -7 -40 0 -30 3 -33 28 -32 16 1 20 3 10 6
-10 2 -18 8 -18 13 0 5 8 11 18 13 16 4 16 5 0 6 -22 1 -24 21 -3 21 8 0 15 5
15 10 0 11 -33 14 -43 3z"/>
<path d="M2750 170 c0 -5 5 -10 10 -10 6 0 10 -13 10 -30 0 -16 5 -30 10 -30
6 0 10 14 10 30 0 17 5 30 10 30 6 0 10 5 10 10 0 6 -13 10 -30 10 -16 0 -30
-4 -30 -10z"/>
<path d="M2826 164 c-19 -19 -20 -36 -4 -52 24 -24 78 -8 78 24 0 17 -28 44
-45 44 -7 0 -21 -7 -29 -16z m52 -26 c-2 -15 -10 -23 -23 -23 -13 0 -21 8 -23
23 -3 18 1 22 23 22 22 0 26 -4 23 -22z"/>
<path d="M2940 140 c0 -38 2 -40 30 -40 25 0 50 21 50 44 0 14 -34 36 -56 36
-21 0 -24 -4 -24 -40z m55 -5 c0 -11 -8 -21 -17 -23 -14 -3 -18 3 -18 23 0 20
4 26 18 23 9 -2 17 -12 17 -23z"/>
<path d="M3030 140 c0 -39 1 -40 35 -40 31 0 35 3 35 28 0 20 3 23 9 13 8 -12
12 -12 25 -2 12 10 15 8 19 -16 3 -20 4 -15 6 16 1 42 0 43 -18 27 -16 -15
-20 -15 -31 -1 -17 20 -30 10 -30 -26 0 -22 -5 -29 -20 -29 -11 0 -20 5 -20
10 0 6 8 10 17 10 15 0 14 2 -3 15 -17 13 -17 14 -1 15 24 0 22 20 -3 20 -17
0 -20 -7 -20 -40z"/>
<path d="M3186 164 c-19 -19 -20 -36 -4 -52 24 -24 78 -8 78 24 0 17 -28 44
-45 44 -7 0 -21 -7 -29 -16z m52 -26 c-2 -15 -10 -23 -23 -23 -13 0 -21 8 -23
23 -3 18 1 22 23 22 22 0 26 -4 23 -22z"/>
<path d="M3280 166 c-6 -8 -10 -25 -8 -38 2 -18 10 -24 36 -26 27 -3 32 0 32
17 0 13 -7 21 -16 21 -14 0 -14 -2 -3 -16 11 -14 10 -15 -11 -12 -37 5 -34 42
3 46 15 2 25 8 22 13 -9 14 -41 11 -55 -5z"/>
<path d="M3500 140 c0 -22 5 -40 10 -40 6 0 10 6 10 14 0 8 6 17 13 19 9 4 8
8 -3 16 -10 7 -11 11 -2 11 6 0 12 5 12 10 0 6 -9 10 -20 10 -17 0 -20 -7 -20
-40z"/>
<path d="M3557 173 c-11 -10 -8 -73 3 -73 6 0 10 18 10 40 0 41 -2 45 -13 33z"/>
<path d="M3596 164 c-30 -30 -11 -65 34 -63 l25 1 -25 7 c-15 4 -26 15 -28 29
-3 18 1 22 23 22 15 0 24 4 20 10 -9 15 -31 12 -49 -6z"/>
<path d="M3676 164 c-29 -28 -12 -64 29 -64 43 0 62 50 26 70 -27 14 -37 13
-55 -6z m52 -26 c-2 -15 -10 -23 -23 -23 -13 0 -21 8 -23 23 -3 18 1 22 23 22
22 0 26 -4 23 -22z"/>
</g>
</svg>
